<svg width="1875" height="2000" viewBox="0 0 1875 2000" fill="none" xmlns="http://www.w3.org/2000/svg">
<rect x="0.5" y="0.5" width="1874" height="1999" stroke="black"/>
<path d="M936.3 289.6C935.7 291.2 934 296.1 932.7 300.5C931.3 304.9 925.7 322.2 920.2 339C914.7 355.8 906 382.3 901 398C892.6 423.9 885.2 446.7 872 487C869.4 495 864.7 509.6 861.5 519.5C858.3 529.4 850.9 552.3 845 570.5C825.5 630.2 823.9 635.3 824.4 636.6C824.7 637.4 826.2 638 827.9 638C829.5 638 833.2 638.7 836.1 639.6C839.1 640.4 844 641.8 847 642.7C850 643.5 854 644.8 855.8 645.6C857.6 646.4 859.7 647 860.5 647C861.2 647 863.1 647.7 864.7 648.5C866.2 649.3 869.8 650.9 872.5 652.1C875.3 653.3 881.2 656 885.8 658.1C890.4 660.3 894.7 662 895.3 662C896.5 662 898.1 657.4 913.6 609.5C930.8 556 936.7 538.5 937.6 538.7C938.1 538.8 941.1 546.9 944.2 556.7C947.4 566.5 950.9 577.2 952.1 580.5C953.2 583.8 956.8 594.8 960 605C966.4 625.3 966.2 624.7 978.9 663.5C983.8 678.3 991.9 703.3 997 719C1002.1 734.7 1010.5 760.5 1015.7 776.5C1020.9 792.4 1026.5 809.8 1028.1 815C1029.8 820.2 1031.5 825.4 1032 826.5C1032.5 827.6 1034.1 832.5 1035.6 837.5C1037.1 842.4 1038.7 847.5 1039.3 848.7L1040.3 851H1154.7C1217.5 851 1269 850.6 1269 850.2C1269 849.7 1267.9 845.6 1266.5 840.9C1260.8 821.8 1254.7 808.8 1244 793C1238.3 784.7 1236.5 782.3 1231.4 776.7L1228.8 774H1163C1111.6 774 1097 773.7 1096.2 772.7C1095.6 772.1 1093.5 766.3 1091.5 760C1087.4 747.1 1080.2 724.8 1067.7 686.5C1063 672.2 1055.1 647.7 1050 632C1045 616.3 1036 588.6 1030 570.5C1024.1 552.3 1016.6 529.4 1013.5 519.5C1010.3 509.6 1005.6 495 1003 487C984.8 431.6 980.6 418.5 975.5 402.5C972.4 392.6 968.3 380.5 966.4 375.7C964.5 370.8 963 366.2 963 365.3C963 363.7 940.7 294.5 938.6 289.6L937.4 286.7L936.3 289.6Z" fill="black"/>
<path d="M748.5 637.9C735.6 638.9 716.6 642.4 706.2 645.7C703.9 646.4 701.1 647 700 647C699 647 697.9 647.4 697.5 647.9C697.2 648.4 695.5 649.2 693.7 649.6C692 649.9 689.2 650.8 687.5 651.5C685.9 652.2 682.5 653.6 680 654.5C671.7 657.7 657.5 664.4 651 668.2C649.1 669.3 645.5 671.3 643 672.7C638.3 675.2 635.3 677 633.6 678.3C614.8 691.9 609.7 696.3 595.5 710.5C580.1 725.9 574.7 732.4 564.3 748C555.1 761.9 551.9 767.5 552.7 768.3C553 768.7 574.1 769 599.5 769H645.6L651.7 763.2C665.5 750.1 676.2 742.4 692.5 734C706 726.9 722.3 720.7 731.5 718.9C733.7 718.5 737.8 717.7 740.5 717.1C763.5 712.7 784.4 712.8 807.5 717.6C817.4 719.6 826 722 829.8 723.6C831.6 724.4 833.5 725 834.1 725C835.2 725 859.8 736.9 863.5 739.3C865.5 740.5 876.1 748.2 881.5 752.3C891.1 759.5 901.9 770.6 912 783.5C915 787.3 917.7 790.7 918 791C918.3 791.3 921 794.6 924 798.5C927 802.3 929.7 805.7 930 806C930.3 806.3 932 808.4 933.9 810.7C935.7 813.1 937.8 815 938.5 815C939.5 815 945.2 808.6 952.7 799C953.3 798.2 955.4 795.7 957.2 793.4C959 791.2 962.1 787.4 964 785C976.9 768.9 990.2 755.6 1000.8 748.4C1001 748.3 998.9 741.3 996.2 732.8C993.5 724.4 988 707.5 984 695.3C980.1 683 976.4 672.8 975.9 672.5C974.4 671.5 942.1 694.4 941.2 697.1C940.3 699.6 935.3 697 928.8 690.7C927.8 689.8 926.7 689 926.4 689C926.1 689 922.4 686.4 918.2 683.2C911.2 677.9 902.8 672.4 899 670.7C898.2 670.3 896 669.1 894.1 667.9C887.4 663.9 875.2 658 866 654.5C863.5 653.6 860.1 652.2 858.5 651.5C856.8 650.8 854 649.9 852.3 649.6C850.5 649.2 848.8 648.4 848.5 647.9C848.1 647.4 847 647 846 647C844.9 647 842.1 646.4 839.8 645.7C834.6 644 823.7 641.7 811.5 639.5C801 637.7 763.7 636.8 748.5 637.9ZM1078.5 638.1C1072.5 638.6 1065.4 639.5 1062.9 640.2L1058.3 641.5L1064.7 661.5C1078.7 704.9 1082.5 715.5 1084 715.1C1087.9 714 1115.4 713.9 1123 714.9C1135.3 716.6 1147.7 719.1 1153.9 721.2C1155.9 721.8 1159.5 723 1162 723.8C1166.8 725.3 1171.6 727.3 1176.3 729.8C1177.9 730.6 1180.4 731 1181.9 730.7C1184.1 730.2 1184.8 730.7 1186.2 733.1C1187.2 734.7 1188.9 736.4 1190.2 736.9C1191.5 737.4 1194.2 739 1196.3 740.4C1198.4 741.8 1200.3 743 1200.6 743C1200.9 743 1204.1 745.3 1207.8 748.1C1233.9 767.8 1253.8 793.7 1265.8 823.5C1269.7 833.2 1270.9 836.9 1272.8 844.6C1276.9 861.1 1277.5 867.1 1277.5 890.7C1277.5 911.7 1277.6 913.7 1279.1 912.4C1279.9 911.6 1281 911 1281.3 911C1281.9 911 1290.3 904.9 1324.4 879.8C1332 874.1 1341.5 867.3 1345.4 864.6C1349.3 862 1352.8 859.3 1353.2 858.7C1354.1 857.3 1352.7 847.6 1349.3 832.5C1347.4 823.6 1338.7 796.6 1335.4 789.2C1332.8 783.3 1325.1 768 1321.8 762.1C1316.9 753.3 1303.5 734.3 1296.9 726.5C1295.9 725.4 1294.2 723.4 1293 722C1288.5 716.7 1279.2 707.3 1274.5 703.2C1269.9 699.2 1269.4 699 1265.3 699.6C1260.1 700.4 1258.9 699.5 1252.7 690.7C1250.5 687.6 1248.2 685 1247.6 685C1245.9 685 1239 689.9 1239 691.1C1239 691.7 1241.1 694.9 1243.6 698.2C1248 703.8 1248.5 704.2 1251.6 703.7C1253.8 703.3 1255.3 703.6 1256.1 704.6C1257.9 706.8 1255.4 709 1251.1 709C1247.2 709 1244.9 707.1 1238.2 698.3C1235.9 695.4 1234.4 694.3 1233.1 694.7C1231 695.2 1229.4 692.2 1230.9 690.7C1231.6 690 1231.2 688.7 1229.9 686.8C1228.4 684.7 1228 683.2 1228.5 681.2L1229.2 678.5L1231.6 681.5C1232.9 683.1 1234 684.8 1234 685.2C1234 686.7 1237.1 686 1240.5 683.7C1242.4 682.5 1244 681 1244 680.3C1244 679.1 1236.9 674.1 1227.5 668.9C1220.1 664.8 1202.2 656 1201.1 656C1200.6 656 1198.9 655.3 1197.4 654.5C1195.8 653.7 1193.8 653 1193 653C1192.1 653 1191 652.6 1190.5 652.1C1187.6 649.6 1161.7 642.7 1142.4 639.5C1131.3 637.6 1093.8 636.8 1078.5 638.1Z" fill="black"/>
<path d="M1260.3 692.7C1261.2 693.6 1262.3 694 1262.7 693.6C1263.1 693.2 1262.8 692.5 1262 692C1259.5 690.4 1258.5 690.9 1260.3 692.7ZM795.2 723.7C793.7 727.7 792.6 731.2 785.9 752.4C782.6 762.9 779.4 772 778.8 772.7C778 773.8 732 774 522.4 774C381.9 774 267 774.3 267 774.7C267 775.3 279.5 784.8 294.8 795.7C302.9 801.6 328.6 820.2 342 830C351.1 836.6 365.9 847.4 375 854C384.1 860.6 397 870 403.7 875C410.5 879.9 416.4 884 417 884C417.5 884 418 884.4 418 884.9C418 885.3 420.5 887.4 423.6 889.4C426.6 891.4 435.4 897.7 443 903.3C450.6 908.9 461.9 917.1 468 921.5C474.1 925.9 479.7 930.1 480.5 930.7C481.2 931.4 482.1 932 482.4 932C482.7 932 483.8 932.7 484.8 933.6C485.7 934.4 492.4 939.4 499.5 944.5C506.7 949.7 513.8 955 515.4 956.2C519.9 959.7 524.8 962.5 525.5 961.9C525.7 961.7 525.2 958.8 524.4 955.5C522.1 946 520.1 933.6 518.4 919.5C516.9 906.2 516.3 874.7 517.5 866.7L518.2 862.3L511.6 857.5C508 854.8 505 852.3 505 851.8C505 851.4 579.3 850.9 670.1 850.8L835.2 850.5L839.5 837.5C864.9 759.4 868.2 748.8 867.2 747.8C866.6 747.2 865.3 746.3 864.1 745.6C863 745 859.5 742.9 856.3 741C853.1 739 846.9 735.9 842.5 734.1C838.1 732.3 833.7 730.4 832.8 729.9C829.9 728.5 819.7 725.2 815.5 724.5C813.3 724.1 810.8 723.4 810 723C809.2 722.6 805.7 722 802.4 721.6C796.4 720.9 796.3 721 795.2 723.7ZM1334.8 774.6C1334.5 774.9 1335.7 778.4 1337.5 782.3C1345 798.4 1351.6 819 1355 836C1356.1 841.8 1357.3 847.5 1357.5 848.7C1358 850.8 1358.6 851 1364 851C1367.3 851 1370 851.4 1370 851.8C1370 852.2 1363.1 857.6 1354.8 863.8C1334.4 878.7 1311.8 895.1 1309.1 897C1304.3 900.2 1281.4 917.1 1279.9 918.5C1279 919.3 1278 920 1277.7 920C1277.3 920 1276.2 920.6 1275.3 921.4C1270.8 925 1248.9 941 1248.4 941C1248.1 941 1247.3 941.6 1246.6 942.2C1245.8 942.9 1244.3 944.2 1243 945C1237.3 948.9 1215.3 965.1 1213.9 966.5C1213 967.3 1212 968 1211.6 968C1211.1 968 1188 984.8 1184.3 988C1183.6 988.5 1182.9 989 1182.6 989C1181.9 989 1150.1 1012.4 1147.9 1014.5C1147 1015.3 1146 1016 1145.6 1016C1145.3 1016 1139.3 1020.2 1132.5 1025.2C1125.6 1030.3 1116.6 1036.9 1112.4 1039.9C1108.3 1042.8 1104.6 1045.8 1104.3 1046.6C1103.8 1047.9 1118.7 1094.8 1120.1 1096.4C1120.7 1097 1121.6 1096.6 1122.5 1095.4C1123.6 1093.9 1123.9 1093.8 1124 1095C1124 1095.9 1123.5 1097.1 1122.8 1097.8C1122 1098.6 1122.3 1099.9 1124.3 1102.9C1125.8 1105.1 1127 1107.4 1127 1108C1127 1109.4 1125.3 1109.3 1124.6 1107.7C1124.3 1107.1 1124.2 1107.8 1124.3 1109.5C1124.7 1112.4 1137.7 1153 1138.6 1154C1138.9 1154.2 1140.1 1153.3 1141.3 1151.8C1142.5 1150.4 1145.3 1147.3 1147.5 1144.8C1154.4 1137 1160.3 1130 1167.3 1121.1C1171.1 1116.4 1174.9 1111.6 1175.8 1110.5C1176.7 1109.4 1179.3 1106 1181.5 1103C1183.6 1100 1185.7 1097.3 1186 1097C1186.4 1096.7 1188.7 1093.5 1191.3 1089.8C1195.6 1083.8 1196 1082.8 1195.4 1079.2C1194.8 1075.3 1194.9 1075.1 1199.1 1072.4C1201.5 1070.9 1208.8 1065.7 1215.2 1060.8C1221.6 1056 1227.2 1052 1227.5 1052C1227.8 1052 1228.6 1051.5 1229.3 1051C1234.1 1046.9 1256.2 1031 1257 1031C1257.5 1031 1258 1030.6 1258 1030.1C1258 1029.7 1260.6 1027.6 1263.8 1025.5C1266.9 1023.4 1273.9 1018.4 1279.2 1014.3C1284.5 1010.3 1289.2 1007 1289.5 1007C1289.9 1007 1290.7 1006.4 1291.4 1005.7C1292.2 1005.1 1293.7 1003.8 1295 1003C1296.2 1002.2 1301.9 998 1307.6 993.8C1313.4 989.5 1319.4 985.3 1321 984.3C1322.7 983.4 1324 982.3 1324 981.9C1324 981.5 1325.7 980.1 1327.8 978.9C1329.8 977.6 1336.8 972.6 1343.2 967.8C1349.6 963 1355.1 959 1355.4 959C1355.9 959 1387.2 936.1 1389.9 933.8C1390.7 933.1 1391.9 932.3 1392.5 932C1393.2 931.7 1399.2 927.4 1405.9 922.5C1412.6 917.5 1424.4 908.9 1432 903.3C1439.6 897.7 1448.4 891.4 1451.4 889.4C1454.5 887.4 1457 885.3 1457 884.9C1457 884.4 1457.5 884 1458 884C1458.6 884 1464.7 879.8 1471.6 874.7C1478.4 869.7 1491.5 860.1 1500.6 853.5C1529.8 832.4 1549.2 818.3 1561.4 809.3C1567.9 804.4 1573.8 800.3 1574.4 800.1C1574.9 799.9 1575.9 799.3 1576.5 798.8C1578.8 796.9 1582.6 794.1 1595 785C1602.1 779.8 1607.9 775.2 1608 774.7C1608 773.9 1335.6 773.7 1334.8 774.6Z" fill="black"/>
<path d="M522.7 863.7C521.5 875.7 522 908.2 523.5 920.5C530.6 979.1 552.5 1035.7 592.4 1098.3C596.8 1105.3 601 1111.8 601.5 1112.8C602.1 1113.7 602.7 1114.7 603 1115C603.3 1115.3 606 1119.1 608.9 1123.5C614.6 1131.9 636.5 1161.5 638.8 1163.9C639.5 1164.7 640.8 1166.3 641.7 1167.6C643.4 1170.2 644.8 1170.7 645.5 1168.7C645.7 1168.1 649.8 1155.3 654.5 1140.5C659.3 1125.6 665.4 1106.8 668.1 1098.6C670.8 1090.3 673 1082.8 673 1081.7C673 1080.7 670.7 1076.6 667.9 1072.7C662.4 1064.8 651.6 1047.9 647.7 1040.9C646.3 1038.5 643.8 1034 642.1 1031C635.5 1019.6 624.8 997.3 619.2 983.5C617.2 978.5 615.5 974.3 615.3 974.1C615.1 973.8 613.9 974.7 612.6 976C609.2 979.1 605.7 978.1 602.3 972.9C599.8 969.1 599.7 968.6 601.1 966.2C602.9 962.9 608.2 962.3 608.8 965.3C609.1 966.7 608.7 967 606.7 966.5C602.4 965.4 602.3 969.2 606.6 973.4C608.6 975.5 609.9 975.4 610.7 973.2C611.1 972.3 612.1 971 612.9 970.3C614.3 969.3 614 968.3 610.8 962.2C608.6 958 607.4 954.4 607.7 953.2C608 952.1 607.5 948.8 606.7 945.8C605 939.8 602.7 929.1 600.8 918C599.2 908.8 599.1 867.4 600.7 861.2L601.8 857H523.3L522.7 863.7Z" fill="black"/>
<path d="M608 929.7C608 930.2 609.3 935.7 611 942C612.6 948.3 614 953.8 614 954.2C614 954.7 615.3 955 617 955C619.3 955 620.6 956 623.5 959.6C626.9 964.2 627.9 967 626 967C625.5 967 623.7 965 622 962.5C616.6 954.7 613.9 957.5 618.5 966.1C619.8 968.7 620.7 971 620.3 971.3C619 972.7 633.5 1005.2 643.7 1023.9C647.2 1030.2 650 1035.7 650 1036.2C650 1036.6 650.5 1037 651 1037C651.6 1037 652 1037.4 652 1038C652 1038.9 657.1 1047.4 666.9 1062.6C669.8 1067.3 672.9 1070.7 675.7 1072.5C680.1 1075.3 680.8 1077 679.1 1081.2C678.5 1082.5 674.4 1095 669.9 1109C665.4 1123 657.5 1147.5 652.3 1163.5C647.1 1179.4 641.5 1196.8 639.8 1202C638.1 1207.2 636.3 1212.4 635.9 1213.5C633.9 1218.7 631.8 1226.2 632.3 1226.6C632.6 1226.9 633.8 1226.7 634.9 1226C636.1 1225.4 637.5 1225.2 638 1225.5C640.1 1226.8 638.9 1229 635.1 1230.9C631.1 1233 629.7 1235 630.6 1237.4C631.6 1239.9 634 1240.1 638.7 1238C644.2 1235.6 645.9 1235.5 648.8 1237.6C652 1239.8 651.8 1245.9 648.4 1250C644.8 1254.2 638 1257.7 636.9 1255.8C635.5 1253.7 635.8 1253.3 640.6 1251C645.4 1248.7 647.7 1245.3 646.6 1242.5C645.9 1240.6 644.1 1240.8 636.2 1243.1C632.7 1244.2 631.5 1244.2 629.8 1243.1C627.3 1241.5 626.7 1242.1 624.6 1248.9L622.9 1254.3L626 1259.3C628.4 1263.2 628.8 1264.5 627.8 1265.1C625.8 1266.4 625.1 1266.2 623.8 1264C623.1 1262.9 622 1262 621.5 1262C620.6 1262 607.5 1300.7 589.3 1357.5C586.3 1366.8 579.6 1387.3 574.5 1403C569.3 1418.7 562.2 1440.5 558.6 1451.5C544.6 1494.8 528.6 1544 525.5 1553.3C522.3 1562.6 522.3 1563 524.3 1562.4C525.4 1562.1 526.8 1561.4 527.4 1560.9C530.6 1558.3 549.8 1544.2 551.5 1543.2C553.2 1542.3 586.8 1517.6 589.5 1515.2C590.1 1514.7 591.9 1513.5 593.5 1512.4C596.8 1510.4 610.7 1500.3 636.1 1481.5C645.1 1474.9 653.2 1469.2 654.2 1468.8C655.2 1468.4 656 1467.6 656 1467C656 1466.5 656.5 1466 657 1466C657.6 1466 663.7 1461.8 670.6 1456.7C677.4 1451.7 690.5 1442.1 699.6 1435.5C708.7 1428.9 723.3 1418.3 732 1412C740.7 1405.7 755.5 1394.9 765 1388C796.4 1365.2 813 1352.8 813 1352.2C813 1351.6 810.1 1348.9 797.8 1337.8C788.8 1329.7 777 1318.8 767.8 1310C762.3 1304.8 757.3 1300.2 756.6 1299.8C756 1299.4 753.1 1300.9 750.3 1303.1C747.4 1305.2 744.6 1307 744.1 1307C743.5 1307 743 1307.4 743 1307.9C743 1308.4 741 1310.1 738.5 1311.7C736 1313.2 734 1314.8 734 1315.2C734 1315.7 733.6 1316 733 1316C732.5 1316 725.8 1320.6 718.1 1326.2C687.4 1348.9 678.9 1355 678.1 1355C677.6 1355 677 1355.7 676.6 1356.5C676.3 1357.3 675.4 1358 674.5 1358C673.7 1358 673 1358.4 673 1359C673 1359.5 672.3 1360 671.4 1360C670.5 1360 670 1359.4 670.3 1358.7C670.5 1358.1 673.5 1348.7 676.9 1338C680.3 1327.3 684.2 1315.3 685.4 1311.5C686.7 1307.6 689.3 1299.5 691.3 1293.5C693.2 1287.4 699.3 1268.8 704.9 1252C713.1 1226.9 723.1 1196 726.4 1185.3C727 1183.3 726.5 1183 719.6 1181.5C715.5 1180.6 711.6 1180.1 711 1180.5C709.7 1181.3 711.2 1184.4 714.7 1188.1C716.8 1190.4 716.9 1190.8 715.5 1192C714.1 1193.1 713.5 1193 711.6 1190.9C710.4 1189.6 715.2 1192.5 709 1186C708.5 1184 704.9 1183.5 706.5 1182C708 1180.5 707 1181.5 707 1180.5V1176.5L707.5 1175C708 1176.5 707.3 1178.8 708 1178C709 1176.8 709.5 1176.7 710 1177L713 1178L718.3 1176.8C722.6 1178.1 727.4 1178.7 727.4 1178.7C727.4 1178.7 730.8 1171.7 733.4 1163.8C736 1156 741.6 1138.7 745.9 1125.5C765.5 1065.7 771.1 1047.8 770.7 1046.6C770.4 1045.8 766.7 1042.8 762.6 1039.9C758.4 1036.9 749.4 1030.3 742.5 1025.2C735.7 1020.2 729.7 1016 729.4 1016C729 1016 728 1015.3 727.1 1014.5C724.9 1012.4 693.1 989 692.4 989C692.1 989 691.4 988.5 690.7 988C687 984.8 663.9 968 663.4 968C663 968 662 967.3 661.1 966.4C660.2 965.6 656.1 962.4 651.9 959.4C644.4 954.2 644.1 954.1 641.4 955.5C637.5 957.5 637.3 957.5 633.9 953.8C632.1 951.7 631 949.5 631 947.5C631 944.8 629.8 943.6 620.5 936.7C610.5 929.4 608 928 608 929.7Z" fill="black"/>
<path d="M634 948.1C634 948.6 634.5 948.8 635 948.5C635.6 948.2 636 947.7 636 947.4C636 947.2 635.6 947 635 947C634.5 947 634 947.5 634 948.1ZM636.6 950.9C635.7 952.4 638.9 954.5 640.2 953.2C640.7 952.7 640.9 951.7 640.6 951.1C639.7 949.8 637.3 949.7 636.6 950.9ZM1332 982.1C1326.8 985.9 1316 993.7 1308 999.5C1300 1005.2 1291.9 1011.1 1290 1012.5C1288.1 1014 1281.3 1018.9 1275 1023.5C1268.7 1028.2 1263 1032.3 1262.5 1032.8C1261.9 1033.3 1260.1 1034.5 1258.5 1035.6C1256.8 1036.6 1250.3 1041.3 1243.9 1046C1237.5 1050.7 1227.7 1057.8 1222.1 1061.8C1212.5 1068.8 1211.3 1070.1 1201.5 1083.8C1191.8 1097.5 1183.2 1108.9 1175.6 1118.5C1171.8 1123.4 1147 1153.1 1145.6 1154.6C1145 1155.2 1141.1 1159.5 1137 1164.1C1116.6 1186.9 1089.2 1215.2 1064.1 1239.4C1060.2 1243.1 1057 1246.6 1057 1247C1057 1247.5 1060.5 1250.3 1064.8 1253.4C1081.5 1265.6 1105.6 1283.2 1107.3 1284.6C1108.2 1285.4 1109.3 1286 1109.6 1286C1109.9 1286 1111.9 1287.3 1114 1289C1116.1 1290.6 1118.7 1292 1119.7 1292C1122.2 1292 1163.9 1249.8 1190.1 1220.9C1191.4 1219.4 1194.1 1216.5 1196 1214.3C1197.9 1212.2 1202.2 1207.3 1205.5 1203.5C1208.8 1199.6 1212.3 1195.6 1213.3 1194.5C1214.3 1193.4 1217.7 1189.3 1220.8 1185.5C1223.9 1181.6 1226.7 1178.3 1227 1178C1227.3 1177.7 1230 1174.3 1233 1170.5C1236 1166.6 1238.7 1163.3 1239.1 1163C1240.3 1162 1260.8 1134.3 1266.1 1126.5C1269 1122.1 1271.7 1118.3 1272 1118C1273.3 1116.9 1283 1101.8 1283 1100.9C1283 1100.4 1283.3 1100 1283.8 1100C1284.2 1100 1285 1099 1285.6 1097.7C1286.2 1096.5 1289.9 1090.2 1293.9 1083.7C1297.8 1077.2 1301 1071.5 1301 1071C1301 1070.6 1301.3 1070 1301.8 1069.8C1303.1 1069.3 1320.5 1034.2 1326 1021C1328.8 1014.1 1331.8 1007.1 1332.5 1005.5C1335.1 999.7 1342.1 977.7 1341.8 976.5C1341.6 975.7 1337.8 977.8 1332 982.1ZM738 1166.5C737.3 1168.2 735.9 1172.4 734.9 1176C733.8 1179.6 732.5 1183.4 732 1184.5C730.5 1188.1 712 1245.7 712 1247C712 1248.1 754.1 1290.5 770.6 1306C785.8 1320.3 800 1333.2 812.9 1344.9C827.8 1358.2 834.8 1364.4 844.5 1372.7C848.9 1376.4 853.6 1380.5 855 1381.7C871 1395.4 888.6 1410.1 892.5 1413.1C894.2 1414.4 895.7 1415.7 896 1416C896.3 1416.3 898.8 1418.3 901.5 1420.5C904.3 1422.6 907 1424.9 907.5 1425.5C908.1 1426.1 910.5 1428.1 913 1430C915.5 1431.9 918.6 1434.4 920 1435.7C921.4 1436.9 926.1 1440.8 930.4 1444.4L938.3 1450.9L942.4 1447.8C944.7 1446 948.1 1443.2 950.1 1441.5C952 1439.9 956.7 1436 960.5 1433C964.2 1430 969.4 1425.8 971.9 1423.6C978.1 1418.4 979.7 1417.1 985.5 1412.5C988.2 1410.3 991.1 1407.8 992 1407C993.9 1405.3 996.6 1403.1 1003.5 1397.5C1006.2 1395.3 1009.1 1392.8 1010 1392C1010.9 1391.2 1013.8 1388.7 1016.4 1386.5C1021.3 1382.5 1026.3 1378.2 1030.5 1374.5C1031.7 1373.4 1035.6 1370 1039.1 1367C1042.6 1364 1046.1 1360.8 1047 1360C1047.8 1359.2 1049.8 1357.5 1051.3 1356.3C1054.1 1354.2 1054.1 1354.1 1052.1 1352.3C1051 1351.3 1045.8 1347.3 1040.5 1343.5C1035.2 1339.6 1024.6 1331.9 1016.9 1326.2C1009.3 1320.6 1002.6 1316 1002 1316C1001.5 1316 1000.7 1315.4 1000.3 1314.7C999.9 1314.1 997.3 1312 994.7 1310.1C990 1306.9 989.8 1306.8 988.1 1308.6C985.9 1310.9 975.1 1320.3 971.3 1323.3C969.8 1324.5 967.8 1326.2 967 1327C966.1 1327.8 963.2 1330.3 960.5 1332.5C957.9 1334.7 952.1 1339.5 947.8 1343.2C943.4 1347 939.3 1350 938.6 1350C937.9 1350 936.2 1349 934.8 1347.7C933.4 1346.5 929.2 1343 925.5 1340C921.8 1337 918.2 1334 917.5 1333.3C915.6 1331.5 908 1325 902.5 1320.5C899.8 1318.3 896.9 1315.8 896 1315C895.2 1314.2 889.5 1309.2 883.5 1304C877.5 1298.8 871.8 1293.8 871 1293C870.1 1292.2 865.9 1288.3 861.5 1284.5C849.6 1273.9 849.3 1273.6 838.1 1263.2C815.7 1242.2 780 1207 764.7 1190.6C759.1 1184.7 751 1176.1 746.8 1171.6L739.1 1163.5L738 1166.5Z" fill="black"/>
<path d="M929.5 1172.9C925.7 1175.7 917.1 1181.9 910.6 1186.7C904.1 1191.5 898.2 1195.7 897.6 1195.9C897.1 1196.1 896.1 1196.7 895.5 1197.2C893.1 1199.2 889.2 1202.1 874.9 1212.5C866.6 1218.5 854.5 1227.4 848.1 1232.1C841.6 1236.9 835.4 1241.3 834.2 1241.9C831.7 1243.2 829 1245.9 829 1247C829 1247.8 835.8 1254.6 842.1 1260.2C843.5 1261.5 847.6 1265.2 851.2 1268.5C854.8 1271.8 861.2 1277.6 865.5 1281.5C869.8 1285.3 875.9 1290.9 879.1 1293.7C882.4 1296.6 885.6 1299 886.3 1299C887.1 1299 891.6 1296.1 896.3 1292.5C901.1 1288.9 905.4 1286 906 1286C906.5 1286 907 1285.6 907 1285.1C907 1284.7 908.9 1283 911.3 1281.5C913.6 1280 920.3 1275.1 926.3 1270.8C932.2 1266.4 937.6 1263 938.3 1263.3C939.4 1263.7 960.6 1279.3 963.7 1282C964.4 1282.5 965.4 1283 966 1283C966.6 1283 967.3 1283.7 967.6 1284.5C968 1285.3 968.6 1286 969.1 1286C969.6 1286 975.5 1290.1 982.3 1295C989 1300 1001.9 1309.5 1011 1316.1C1020.1 1322.7 1028.2 1328.7 1029.1 1329.4C1030 1330.2 1031.2 1330.9 1031.7 1331.1C1032.3 1331.3 1039 1336.1 1046.6 1341.8C1054.2 1347.4 1067.9 1357.5 1077 1364.1C1086.1 1370.7 1094.3 1376.8 1095.3 1377.6C1096.2 1378.4 1097.2 1379 1097.5 1379C1097.8 1379 1102.6 1382.4 1108.2 1386.5C1119.5 1394.7 1120.2 1395.3 1140.8 1410.4C1148.6 1416.3 1155.2 1421 1155.5 1421C1155.8 1421 1156.8 1421.6 1157.7 1422.4C1158.7 1423.2 1166.9 1429.3 1176 1435.9C1185.1 1442.5 1198.8 1452.6 1206.4 1458.2C1214.1 1463.9 1221.2 1468.9 1222.2 1469.5C1223.8 1470.4 1235.1 1478.6 1270.7 1505C1277.5 1509.9 1283.4 1514 1283.9 1514C1284.4 1514 1285 1514.7 1285.4 1515.5C1285.7 1516.3 1286.4 1517 1286.9 1517C1287.7 1517 1314.3 1536.2 1318.7 1540C1319.4 1540.5 1320.2 1541 1320.5 1541C1320.8 1541 1327.2 1545.6 1334.8 1551.3C1348.5 1561.6 1352 1563.8 1352 1562C1352 1561.2 1347.1 1546 1332 1500C1329.9 1493.7 1324.5 1477 1320 1463C1315.5 1449 1307.2 1423.3 1301.5 1406C1295.8 1388.7 1287.5 1363 1283 1349C1264.5 1291.4 1264.5 1291.5 1261.9 1291.2C1258.9 1290.7 1255.2 1287.3 1250.8 1280.9C1249 1278.2 1246.9 1276 1246.2 1276C1244.1 1276 1238 1280.4 1238 1282C1238 1282.8 1240.1 1286.1 1242.6 1289.4C1246.9 1294.8 1247.4 1295.2 1250.5 1294.7C1252.8 1294.3 1254.3 1294.6 1255.1 1295.6C1256.9 1297.8 1254.4 1300 1250.1 1300C1246.1 1300 1243.9 1298.2 1237 1289.2C1234.9 1286.4 1233.2 1285.1 1232.2 1285.5C1230.2 1286.2 1227.8 1282.9 1229.2 1281.3C1229.9 1280.4 1229.6 1279.2 1228.1 1277.2C1226.4 1274.7 1226.3 1274 1227.4 1272.5C1228.6 1270.9 1228.8 1271 1231.2 1274C1234 1277.6 1235.6 1277.6 1240.5 1273.6L1243.5 1271.2L1241.7 1268.1C1240.6 1266.1 1240.1 1264.2 1240.6 1262.8C1241.2 1260.8 1241.4 1260.9 1244.5 1264.5L1247.7 1268.4L1250.4 1266.6C1252.6 1265.2 1253.4 1265.1 1254.6 1266.1C1255.4 1266.7 1256 1267 1256 1266.6C1256 1266.3 1253.6 1258.5 1250.6 1249.3C1247.6 1240 1243.9 1228.7 1242.5 1224C1241 1219.3 1239.5 1214.6 1239 1213.5C1238.5 1212.4 1236.2 1205.3 1233.8 1197.7C1231.5 1190.2 1229.2 1184 1228.8 1184C1228.5 1184 1226.7 1185.9 1224.9 1188.2C1223.1 1190.6 1220.7 1193.4 1219.5 1194.5C1218.4 1195.6 1215.9 1198.6 1213.9 1201C1209.9 1205.9 1209.6 1206.3 1200.4 1216.6C1193.3 1224.5 1192.9 1225 1180 1238.9C1174.8 1244.5 1170.4 1249.6 1170.2 1250C1169.9 1250.8 1185.2 1299.3 1188.2 1307.2C1190.1 1312.2 1191.7 1312.7 1195.2 1309.1C1199 1305.2 1202.5 1304.2 1205.8 1306.1C1207.2 1306.9 1211.5 1311 1215.3 1315.3C1221.9 1322.6 1222.3 1323.2 1220.7 1324.8C1219.1 1326.3 1218.7 1326.1 1214.3 1321C1206.5 1312 1204.3 1310 1202 1310C1199.9 1310 1195 1314.1 1195 1315.9C1195 1316.5 1198.3 1320.7 1202.4 1325.2C1209.1 1332.6 1209.7 1333.7 1208.4 1335C1207 1336.3 1206.2 1335.8 1201 1330.2C1197.9 1326.8 1195 1324 1194.6 1324C1193.3 1324 1194.1 1327 1197 1332.3C1198.7 1335.4 1200 1339.5 1200 1341.3C1200 1343.1 1201.1 1348 1202.5 1352C1203.9 1356 1205 1359.5 1205 1359.7C1205 1360.9 1201.9 1359.4 1197.3 1355.9C1193.4 1353 1191.1 1351.9 1189.4 1352.3C1187.5 1352.6 1186.8 1352.1 1185.9 1349.6C1185.2 1347.6 1182.4 1344.8 1177.8 1341.5C1174 1338.7 1164.6 1331.9 1157 1326.3C1149.4 1320.7 1140.6 1314.4 1137.6 1312.4C1134.5 1310.4 1132 1308.3 1132 1307.9C1132 1307.4 1131.6 1307 1131 1307C1130.1 1307 1122.8 1301.8 1093.3 1280C1086.5 1275.1 1080.6 1271 1080.1 1271C1079.6 1271 1079 1270.3 1078.6 1269.5C1078.3 1268.7 1077.6 1268 1077.1 1268C1076.5 1268 1068.9 1262.6 1060 1256C1051.2 1249.4 1043.8 1244 1043.5 1244C1043.2 1244 1036.8 1239.4 1029.1 1233.7C1021.4 1228.1 1008.4 1218.5 1000.1 1212.5C985.3 1201.7 981.7 1199.1 979.3 1197C978.6 1196.5 977.8 1196 977.5 1196C977.2 1196 971.3 1191.8 964.5 1186.7C946.5 1173.4 939.8 1168.8 938 1168.3C937.2 1168.1 933.4 1170.2 929.5 1172.9Z" fill="black"/>
</svg>
